<svg id="visual" viewBox="0 0 900 600" width="900" height="600" xmlns="http://www.w3.org/2000/svg" xmlns:xlink="http://www.w3.org/1999/xlink" version="1.1"><path d="M0 73L50 73L50 31L100 31L100 55L150 55L150 55L200 55L200 67L250 67L250 43L300 43L300 55L350 55L350 49L400 49L400 25L450 25L450 49L500 49L500 55L550 55L550 61L600 61L600 79L650 79L650 37L700 37L700 67L750 67L750 31L800 31L800 31L850 31L850 73L900 73L900 43L900 0L900 0L850 0L850 0L800 0L800 0L750 0L750 0L700 0L700 0L650 0L650 0L600 0L600 0L550 0L550 0L500 0L500 0L450 0L450 0L400 0L400 0L350 0L350 0L300 0L300 0L250 0L250 0L200 0L200 0L150 0L150 0L100 0L100 0L50 0L50 0L0 0Z" fill="#2b0532"></path><path d="M0 163L50 163L50 127L100 127L100 97L150 97L150 145L200 145L200 163L250 163L250 97L300 97L300 115L350 115L350 151L400 151L400 115L450 115L450 109L500 109L500 157L550 157L550 115L600 115L600 169L650 169L650 109L700 109L700 133L750 133L750 85L800 85L800 109L850 109L850 145L900 145L900 73L900 41L900 71L850 71L850 29L800 29L800 29L750 29L750 65L700 65L700 35L650 35L650 77L600 77L600 59L550 59L550 53L500 53L500 47L450 47L450 23L400 23L400 47L350 47L350 53L300 53L300 41L250 41L250 65L200 65L200 53L150 53L150 53L100 53L100 29L50 29L50 71L0 71Z" fill="#3f083d"></path><path d="M0 217L50 217L50 187L100 187L100 163L150 163L150 175L200 175L200 223L250 223L250 145L300 145L300 175L350 175L350 193L400 193L400 175L450 175L450 139L500 139L500 181L550 181L550 145L600 145L600 193L650 193L650 169L700 169L700 163L750 163L750 151L800 151L800 151L850 151L850 181L900 181L900 133L900 71L900 143L850 143L850 107L800 107L800 83L750 83L750 131L700 131L700 107L650 107L650 167L600 167L600 113L550 113L550 155L500 155L500 107L450 107L450 113L400 113L400 149L350 149L350 113L300 113L300 95L250 95L250 161L200 161L200 143L150 143L150 95L100 95L100 125L50 125L50 161L0 161Z" fill="#550d47"></path><path d="M0 373L50 373L50 385L100 385L100 307L150 307L150 241L200 241L200 289L250 289L250 319L300 319L300 349L350 349L350 349L400 349L400 295L450 295L450 277L500 277L500 379L550 379L550 319L600 319L600 373L650 373L650 307L700 307L700 265L750 265L750 385L800 385L800 307L850 307L850 415L900 415L900 301L900 131L900 179L850 179L850 149L800 149L800 149L750 149L750 161L700 161L700 167L650 167L650 191L600 191L600 143L550 143L550 179L500 179L500 137L450 137L450 173L400 173L400 191L350 191L350 173L300 173L300 143L250 143L250 221L200 221L200 173L150 173L150 161L100 161L100 185L50 185L50 215L0 215Z" fill="#6b114f"></path><path d="M0 445L50 445L50 451L100 451L100 403L150 403L150 367L200 367L200 337L250 337L250 403L300 403L300 463L350 463L350 409L400 409L400 373L450 373L450 325L500 325L500 439L550 439L550 451L600 451L600 469L650 469L650 439L700 439L700 325L750 325L750 469L800 469L800 379L850 379L850 475L900 475L900 403L900 299L900 413L850 413L850 305L800 305L800 383L750 383L750 263L700 263L700 305L650 305L650 371L600 371L600 317L550 317L550 377L500 377L500 275L450 275L450 293L400 293L400 347L350 347L350 347L300 347L300 317L250 317L250 287L200 287L200 239L150 239L150 305L100 305L100 383L50 383L50 371L0 371Z" fill="#821656"></path><path d="M0 541L50 541L50 541L100 541L100 559L150 559L150 529L200 529L200 547L250 547L250 523L300 523L300 547L350 547L350 547L400 547L400 511L450 511L450 511L500 511L500 529L550 529L550 535L600 535L600 547L650 547L650 541L700 541L700 559L750 559L750 571L800 571L800 535L850 535L850 571L900 571L900 529L900 401L900 473L850 473L850 377L800 377L800 467L750 467L750 323L700 323L700 437L650 437L650 467L600 467L600 449L550 449L550 437L500 437L500 323L450 323L450 371L400 371L400 407L350 407L350 461L300 461L300 401L250 401L250 335L200 335L200 365L150 365L150 401L100 401L100 449L50 449L50 443L0 443Z" fill="#991c5b"></path><path d="M0 601L50 601L50 601L100 601L100 601L150 601L150 601L200 601L200 601L250 601L250 601L300 601L300 601L350 601L350 601L400 601L400 601L450 601L450 601L500 601L500 601L550 601L550 601L600 601L600 601L650 601L650 601L700 601L700 601L750 601L750 601L800 601L800 601L850 601L850 601L900 601L900 601L900 527L900 569L850 569L850 533L800 533L800 569L750 569L750 557L700 557L700 539L650 539L650 545L600 545L600 533L550 533L550 527L500 527L500 509L450 509L450 509L400 509L400 545L350 545L350 545L300 545L300 521L250 521L250 545L200 545L200 527L150 527L150 557L100 557L100 539L50 539L50 539L0 539Z" fill="#b0235f"></path></svg>